<svg xmlns="http://www.w3.org/2000/svg" viewBox="0 0 800 500" preserveAspectRatio="xMidYMid slice" role="img" aria-label="Tonsorium — Barbería premium">
  <defs>
    <linearGradient id="bg" x1="0" y1="0" x2="1" y2="1">
      <stop offset="0%" stop-color="#161010"/>
      <stop offset="55%" stop-color="#1e1512"/>
      <stop offset="100%" stop-color="#0d0908"/>
    </linearGradient>
    <linearGradient id="gold" x1="0" y1="0" x2="1" y2="1">
      <stop offset="0%" stop-color="#f7d67a"/>
      <stop offset="50%" stop-color="#c9a253"/>
      <stop offset="100%" stop-color="#7a5a24"/>
    </linearGradient>
    <linearGradient id="goldSoft" x1="0" y1="0" x2="1" y2="0">
      <stop offset="0%" stop-color="#c9a253" stop-opacity="0"/>
      <stop offset="50%" stop-color="#c9a253"/>
      <stop offset="100%" stop-color="#c9a253" stop-opacity="0"/>
    </linearGradient>
    <radialGradient id="glow" cx="0.5" cy="0.5" r="0.5">
      <stop offset="0%" stop-color="#f0c96b" stop-opacity="0.35"/>
      <stop offset="60%" stop-color="#f0c96b" stop-opacity="0.05"/>
      <stop offset="100%" stop-color="#f0c96b" stop-opacity="0"/>
    </radialGradient>
    <linearGradient id="poleStripes" x1="0" y1="0" x2="0" y2="1">
      <stop offset="0%" stop-color="#e9dcc4"/>
      <stop offset="16%" stop-color="#e9dcc4"/>
      <stop offset="16%" stop-color="#c94141"/>
      <stop offset="33%" stop-color="#c94141"/>
      <stop offset="33%" stop-color="#2a3d78"/>
      <stop offset="50%" stop-color="#2a3d78"/>
      <stop offset="50%" stop-color="#e9dcc4"/>
      <stop offset="66%" stop-color="#e9dcc4"/>
      <stop offset="66%" stop-color="#c94141"/>
      <stop offset="83%" stop-color="#c94141"/>
      <stop offset="83%" stop-color="#2a3d78"/>
      <stop offset="100%" stop-color="#2a3d78"/>
    </linearGradient>
    <pattern id="grain" x="0" y="0" width="4" height="4" patternUnits="userSpaceOnUse">
      <rect width="4" height="4" fill="transparent"/>
      <circle cx="1" cy="1" r="0.35" fill="#f0c96b" fill-opacity="0.08"/>
      <circle cx="3" cy="2.4" r="0.25" fill="#f0c96b" fill-opacity="0.06"/>
    </pattern>
  </defs>

  <rect width="800" height="500" fill="url(#bg)"/>
  <ellipse cx="400" cy="260" rx="360" ry="220" fill="url(#glow)"/>
  <rect width="800" height="500" fill="url(#grain)"/>

  <g opacity="0.55">
    <path d="M0 90 L800 90" stroke="url(#goldSoft)" stroke-width="1"/>
    <path d="M0 410 L800 410" stroke="url(#goldSoft)" stroke-width="1"/>
  </g>

  <g transform="translate(400 250)">
    <rect x="-155" y="-105" width="310" height="210" rx="4" ry="4" fill="none" stroke="url(#gold)" stroke-width="1.2" opacity="0.75"/>
    <rect x="-149" y="-99" width="298" height="198" rx="2" ry="2" fill="none" stroke="url(#gold)" stroke-width="0.6" opacity="0.4"/>

    <g transform="translate(-118 0)">
      <rect x="-14" y="-70" width="28" height="10" rx="2" fill="#2a1f14" stroke="url(#gold)" stroke-width="0.8"/>
      <rect x="-11" y="-60" width="22" height="120" fill="url(#poleStripes)"/>
      <rect x="-14" y="60" width="28" height="10" rx="2" fill="#2a1f14" stroke="url(#gold)" stroke-width="0.8"/>
      <circle cx="0" cy="-76" r="4" fill="url(#gold)"/>
      <circle cx="0" cy="76" r="4" fill="url(#gold)"/>
    </g>

    <g transform="translate(50 0)">
      <text x="0" y="-30" text-anchor="middle" font-family="'Times New Roman', Georgia, serif" font-size="14" letter-spacing="6" fill="#c9a253" opacity="0.85">EST · MMXXV</text>
      <text x="0" y="10" text-anchor="middle" font-family="'Times New Roman', Georgia, serif" font-size="44" font-weight="500" letter-spacing="4" fill="url(#gold)">TONSORIUM</text>
      <line x1="-95" y1="24" x2="95" y2="24" stroke="url(#goldSoft)" stroke-width="1"/>
      <text x="0" y="46" text-anchor="middle" font-family="'Times New Roman', Georgia, serif" font-size="11" letter-spacing="8" fill="#e9dcc4" opacity="0.7">SPA · FOR · MEN</text>
      <text x="0" y="78" text-anchor="middle" font-family="Georgia, serif" font-size="12" font-style="italic" fill="#c9a253" opacity="0.75">El arte del caballero</text>
    </g>
  </g>

  <g transform="translate(60 60)" opacity="0.7">
    <path d="M0 0 L20 0 M0 0 L0 20" stroke="url(#gold)" stroke-width="1"/>
  </g>
  <g transform="translate(740 60)" opacity="0.7">
    <path d="M0 0 L-20 0 M0 0 L0 20" stroke="url(#gold)" stroke-width="1"/>
  </g>
  <g transform="translate(60 440)" opacity="0.7">
    <path d="M0 0 L20 0 M0 0 L0 -20" stroke="url(#gold)" stroke-width="1"/>
  </g>
  <g transform="translate(740 440)" opacity="0.7">
    <path d="M0 0 L-20 0 M0 0 L0 -20" stroke="url(#gold)" stroke-width="1"/>
  </g>

  <g transform="translate(180 420)" opacity="0.75">
    <g stroke="url(#gold)" stroke-width="1.4" fill="none" stroke-linecap="round">
      <circle cx="0" cy="0" r="7"/>
      <circle cx="16" cy="0" r="7"/>
      <line x1="6" y1="-5" x2="46" y2="-24"/>
      <line x1="12" y1="-5" x2="46" y2="-22"/>
    </g>
  </g>

  <g transform="translate(600 420)" opacity="0.75">
    <path d="M0 0 h34 v-12 a10 10 0 0 1 8 4 v6 a10 10 0 0 1 -8 4 v-2 h-2 v14 h-32 z" fill="none" stroke="url(#gold)" stroke-width="1.4" stroke-linejoin="round"/>
    <path d="M8 -6 q0 -8 6 -8 M18 -6 q0 -8 6 -8 M28 -6 q0 -8 6 -8" fill="none" stroke="#c9a253" stroke-width="1" opacity="0.7"/>
  </g>

  <text x="400" y="475" text-anchor="middle" font-family="ui-monospace, Menlo, monospace" font-size="9" letter-spacing="6" fill="#c9a253" opacity="0.55">RESERVAS · REACT · PHP · SQL SERVER</text>
</svg>
