<svg xmlns="http://www.w3.org/2000/svg" viewBox="0 0 800 640" preserveAspectRatio="xMidYMid slice" role="img" aria-label="Tonsorium — Barbería premium">
  <rect width="800" height="640" fill="#ffffff"/>

  <g stroke="#111111" stroke-width="1" fill="none">
    <rect x="40" y="40" width="720" height="560"/>
    <rect x="52" y="52" width="696" height="536"/>
  </g>

  <g transform="translate(400 200)" text-anchor="middle" fill="#111111">
    <text font-family="Georgia, 'Times New Roman', serif" font-size="12" letter-spacing="8" y="-30">EST · MMXXV</text>
    <line x1="-70" y1="-14" x2="70" y2="-14" stroke="#111111" stroke-width="1"/>
    <text font-family="Georgia, 'Times New Roman', serif" font-size="72" font-weight="400" letter-spacing="6" y="40">TONSORIUM</text>
    <text font-family="Georgia, 'Times New Roman', serif" font-size="14" letter-spacing="10" y="72" fill="#6b6b68">SPA · FOR · MEN</text>
  </g>

  <g transform="translate(400 340)" text-anchor="middle" fill="#111111">
    <text font-family="Georgia, serif" font-size="16" font-style="italic" y="0">"El arte del caballero"</text>
  </g>

  <g transform="translate(400 430)" text-anchor="middle">
    <g stroke="#111111" stroke-width="1" fill="none">
      <rect x="-16" y="-70" width="32" height="8"/>
      <rect x="-14" y="-62" width="28" height="90"/>
      <rect x="-16" y="28" width="32" height="8"/>
      <line x1="-14" y1="-50" x2="14" y2="-40"/>
      <line x1="-14" y1="-40" x2="14" y2="-30"/>
      <line x1="-14" y1="-30" x2="14" y2="-20"/>
      <line x1="-14" y1="-20" x2="14" y2="-10"/>
      <line x1="-14" y1="-10" x2="14" y2="0"/>
      <line x1="-14" y1="0" x2="14" y2="10"/>
      <line x1="-14" y1="10" x2="14" y2="20"/>
    </g>
  </g>

  <g transform="translate(400 550)" text-anchor="middle" fill="#6b6b68">
    <line x1="-140" y1="-14" x2="-40" y2="-14" stroke="#111111" stroke-width="0.5"/>
    <line x1="40" y1="-14" x2="140" y2="-14" stroke="#111111" stroke-width="0.5"/>
    <text font-family="ui-monospace, Menlo, monospace" font-size="9" letter-spacing="6">REACT · PHP · SQL SERVER · TAILWIND</text>
  </g>

  <g fill="#111111" font-family="ui-monospace, Menlo, monospace" font-size="9" letter-spacing="4">
    <text x="60" y="70">Nº 01</text>
    <text x="740" y="70" text-anchor="end">2026</text>
    <text x="60" y="590">ITAGÜÍ · CO</text>
    <text x="740" y="590" text-anchor="end">TONSORIUM.ONLINE</text>
  </g>
</svg>
